<svg id="Vector_Graphics" data-name="Vector Graphics" xmlns="http://www.w3.org/2000/svg" viewBox="0 0 518.22 422.74"><defs><style>.cls-1{fill:#fff;}</style></defs><g id="Line_Art" data-name="Line Art"><path d="M437.3,87.15c12.74-.14,25.49.06,38.23.09,14.69.29,29.4.07,44.08.83,6,.51,12.15.77,17.79,3a66.38,66.38,0,0,1,14.37,8.9,146.24,146.24,0,0,1,18,17,200.26,200.26,0,0,1,20.29,31.7c4.29,8.62,8.28,17.49,14,25.31,5.43,7.7,12.48,14,19.34,20.39,3.8,4.11,8,7.85,11.75,12a196.47,196.47,0,0,1,13.1,16.26c2.32,3.55,5.43,6.7,6.62,10.88a70.72,70.72,0,0,1,3.57,25.81,52.31,52.31,0,0,1-4.63,17.25c-2.83,4.57-5.16,9.45-8.2,13.89-2.39,2.88-4.51,6-6.82,8.93-5.32,5.62-10.06,11.76-15.65,17.14A95.92,95.92,0,0,0,608,335.75c-3.69,5.78-6.37,12.11-9.5,18.19a110,110,0,0,1-16.52,23.28c-4.64,5.23-9.92,9.84-14.93,14.7-6.56,5.9-12.93,12.12-20.44,16.84a494.9,494.9,0,0,1-50.63,28.48c-4,2-8.1,3.68-12.25,5.3-22.16,9.37-43.58,20.35-65.31,30.66-7.57,3.5-15.19,6.87-22.95,9.91-3.5,1.29-7,2.8-10.75,3.19a50.24,50.24,0,0,0-15.3,3.5c-12.64,3.82-25.29,7.61-38,11.22-7.82,1.85-15.55,4.17-23.53,5.22-7.08,1.48-14.32,1.63-21.49,2.22-10.19-.06-20.35.59-30.51,1.24-4,.43-7.94-.28-11.91-.27-4.29-.5-8.67-.11-12.9-1.13-2.63-.55-5.27-1-7.91-1.53-4.39-.85-8.15-3.47-12.47-4.54-6.73-1.7-12.88-5-18.9-8.37-4.93-3-10-5.87-14.06-10a86.61,86.61,0,0,1-14.4-19.72,26.6,26.6,0,0,1-3.57-12.86c-.22-10.95,1.43-21.83,1.75-32.76.56-4.68.21-9.42.66-14.1.32-4.34.2-8.69.34-13,.73-10.52.31-21.07.64-31.61.47-14.13.32-28.28-.35-42.39a77,77,0,0,0-1.43-10c-1.91-8.12-6.07-15.42-9.86-22.77s-7.84-14.6-9.64-22.69c-1.1-4.56-.93-9.26-1.35-13.9a148.07,148.07,0,0,1,.29-17.5c.06-6.49.73-13.11,3.28-19.14,3.21-7.82,8.9-14.39,15.4-19.69,5.95-3.86,11.36-8.88,14.62-15.26a53,53,0,0,0,3.83-14.87c.53-3.54.09-7.17,1.09-10.64,1.52-5.51,5.33-10,9.07-14.15,6.07-5.93,13.06-10.83,20.11-15.52a139.14,139.14,0,0,1,37-17.26c14.91-4.37,30.29-6.85,45.64-9.1,17.24-2.52,34.56-4.82,52-5.42,10.71-.7,21.46-.81,32.18-1.33,7,0,13.93-.18,20.89-.45C409.71,87.58,423.5,87.22,437.3,87.15Zm-31.21,11c-8.84.48-17.71.21-26.55.78-12.27.21-24.51,1-36.77,1.5-14.14,1-28.33,1.78-42.38,3.78-4.47.69-9,1.34-13.21,3.07-.09.44-.17.88-.25,1.32a23.31,23.31,0,0,0,6.17.79c15.5.35,31-.81,46.45-1.41l.33-.25c5.15-.08,10.26-.72,15.41-.93,8.44-.78,16.89-1.57,25.26-3,16.16-1.61,32.47-2.52,48.69-1.34,19.7,1.19,38.58,7.73,56.59,15.43,9.67,4.52,18.78,10.12,27.83,15.76,8.77,5.59,17.53,11.24,25.72,17.67,1.59,1.46,3.74,2.61,4.38,4.83a14.94,14.94,0,0,1-4.06-1.7c-7.13-4.23-13.39-9.76-20.52-14a305.52,305.52,0,0,0-59.37-28.71c-11.3-3.94-23.22-5.75-35.09-6.91-12.06-.88-24.14.35-36.15,1.32-17.15,1.34-34.17,4-51.33,5.14-11.67.64-23.35,1-35,.68-11.09-.68-22.22-.77-33.33-.39-7.07.54-14.24,1.07-21,3.33a159.11,159.11,0,0,0-27.29,12.44c-8.46,4.84-16.8,10-24,16.66a26.45,26.45,0,0,0-6.33,10.54,30.54,30.54,0,0,0-1.45,9.19c-.6,7.73-2.18,15.74-6.77,22.18a70.75,70.75,0,0,1-13.36,13.75,99.52,99.52,0,0,0-9.37,9.34c-2.05,2.56-4.22,5.14-5.19,8.33-2,6-2.4,12.4-2.89,18.68-.12,8.32-.27,16.87,2.5,24.83,4.22,12.32,11.82,23.11,16.39,35.28,2.5,6.6,3.09,13.69,3.48,20.67.22,18.46.16,36.91.12,55.37,0,10.54-.51,21-.71,31.59-.48,8.3-.6,16.62-1.48,24.9-.52,6.59-1.58,13.18-1.08,19.81.56,6,3.82,11.13,6.87,16.1,5.67,8.19,12.81,15.72,21.81,20.25,8.45,4.42,17.31,8.49,26.81,10,12.33,1.94,24.85,1.26,37.27,1.17,7.74-.39,15.48-.6,23.21-1.26a245.21,245.21,0,0,0,30.08-5.05l.31-.17c12.16-2.76,24.12-6.27,36.24-9.17,10.29-2.44,20.56-5.07,31-6.55,5.49-1.28,10.68-3.57,15.93-5.59,13.88-5.69,27.31-12.4,40.75-19,11.19-5.41,22.39-10.79,33.79-15.74,3.95-1.78,8.06-3.16,12-5,11-5,21.55-10.77,32.05-16.66,8.42-4.83,16.84-9.71,24.82-15.24a139.44,139.44,0,0,0,11.1-9.19c9.61-8.84,19.66-17.49,27-28.44,6.33-8.7,9.78-19,15.39-28.14a87.62,87.62,0,0,1,11.2-15.37c1.72-1.92,3.86-3.66,4.62-6.22-3.46.35-6.68,2.27-10.22,1.7,2.61-3.1,6.66-4.38,10.23-6.08,7.91-2.78,14.17-8.82,18.87-15.59A74.63,74.63,0,0,0,643.38,265c.17-.76.34-1.52.55-2.28,1.46-6.67,1.9-13.68.28-20.37-1.58-7.33-6-13.55-10.27-19.57-5.64-7.44-11.61-14.79-19-20.54-3-2.44-7-3.08-10.64-4-3.22-.61-6.43-1.21-9.67-1.64-6.78-1.07-13.71-1.1-20.44-2.39,2.87-.63,5.82-.18,8.73-.46,5.89-.52,11.91.25,17.73-1,1.4-.5.5-2.26-.29-2.94-5.67-5.8-9.25-13.18-13.07-20.23-2.28-4.56-4.41-9.2-6.66-13.77a209.64,209.64,0,0,0-15.77-26.32,90.82,90.82,0,0,0-11.24-12.53,94.26,94.26,0,0,0-12.89-10.52c-4.14-2.52-8.39-5.09-13.18-6.12a100.89,100.89,0,0,0-18.11-1.8c-4.57,0-9.12-.47-13.69-.38C465.85,97.92,436,97.78,406.09,98.19Z" transform="translate(-140.37 -87.1)"/><path d="M374.77,121.38c16.19-3.47,32.89-3.59,49.32-2.12,6.06.38,12.08,1.19,18.1,2,8.15,1.21,16.38,2.42,24.16,5.27a185.21,185.21,0,0,1,30.18,13.45c11.66,7.1,23,15.35,31.17,26.43a6.62,6.62,0,0,1,1.34,2.92c-2.87-1.09-5.17-3.2-7.47-5.18-4.63-4-8.66-8.73-13.6-12.42a142.1,142.1,0,0,0-30.63-17.49,129.8,129.8,0,0,0-31.53-9.34c-20-3.3-40.54-5.13-60.73-2.17-7.14.94-14.17,2.53-21.32,3.44-25.3,3.17-50.92,2.93-76.3,1-8.29-.62-16.54-1.78-24.86-2.19a34,34,0,0,0-12.43.86c-3.32,1.19-6,4.14-9.63,4.36-1.32.13-.55-1.53-.09-2a16.24,16.24,0,0,1,9.72-5.77c6.77-1.16,13.63-.19,20.41.15q17.75,2,35.6,2.78c6.93.63,13.91.34,20.85.75,5.28-.25,10.57-.24,15.85-.57C353.56,124.55,364.26,123.58,374.77,121.38Z" transform="translate(-140.37 -87.1)"/><path d="M391.22,136.1c6.69-1.69,13.66-1.72,20.53-1.82,7.89-.13,15.76.27,23.65.51,9.48.69,19.05,1.29,28.24,3.92A107.93,107.93,0,0,1,485,146.78a107.46,107.46,0,0,1,22.23,16.89c2.59,2.63,5.38,5.21,6.94,8.63l-.77,1c-3.33-1.7-6.07-4.33-8.71-6.94a96.47,96.47,0,0,0-14.5-12A65.94,65.94,0,0,0,477.21,147a121.14,121.14,0,0,0-35.51-8.89c-11.28-.91-22.63-1.49-33.95-.66-5.61,0-11.31.53-16.87-.5C391,136.75,391.13,136.31,391.22,136.1Z" transform="translate(-140.37 -87.1)"/><path d="M395.43,144.06c2-2,4.12-4,6.87-4.82,0,.32.09,1,.13,1.3l.43-.4a29.47,29.47,0,0,1-3.51,5.06,39.33,39.33,0,0,0-8.43,15.32c-1,3.33-1.21,6.88-2.4,10.17a53.71,53.71,0,0,1-.25-9.74A24.83,24.83,0,0,1,395.43,144.06Z" transform="translate(-140.37 -87.1)"/><path d="M260.6,142.72c7.69-3.68,16.42-3.11,24.65-2.35,10.67.93,21.38,1.78,31.95,3.64,2.92.56,5.9,1.17,8.46,2.77l.06,1.5c-2.92.56-5.83-.17-8.63-.92-6.58-1.41-13.29-2.08-20-2.9-8.49-.71-17-1.79-25.51-1.34-6.32.39-11.93,3.63-17.31,6.7-5.1,2.89-10.18,6.3-13.46,11.28-2.29,3.37-3.06,7.47-5.17,10.94l-.94,0A21.5,21.5,0,0,1,239,157.18C244.47,150.2,252.74,146.35,260.6,142.72Z" transform="translate(-140.37 -87.1)"/><path d="M313.1,160.69A6.26,6.26,0,0,1,312,155.5c3.45.42,5.09,3.88,6.16,6.76,2.77,7.73,1.62,16.05.85,24-1-3.84-.41-7.84-1.11-11.72C317.12,169.72,315.91,164.79,313.1,160.69Z" transform="translate(-140.37 -87.1)"/><path d="M415.72,174.16c8.67-3.81,18.28-4.68,27.65-4.44a134.06,134.06,0,0,1,38,4.72l.28.24L483,175a53.41,53.41,0,0,1,25.2,17.74c1.79,2.68,4.13,6.11,2.61,9.41-2.59,4.31-7.71,6.61-12.64,6.51-9-.29-17.62-3.29-26.58-3.91a102,102,0,0,0-40.18,4.16c-11,3.36-20.94,9.4-31.49,13.88-4.48-2.91-9.14-5.6-13.17-9.14-2.24-1.91-4.54-4-5.62-6.82-.49-2.75-.92-5.7,0-8.4,1.16-2.66,3.42-4.6,5.46-6.58A115.17,115.17,0,0,1,415.72,174.16Zm7.22,9.89c-9.24,3.3-18.28,7.82-25.49,14.58-1.09,1.18-2.6,2.38-2.55,4.15-.19,2.22,1.85,3.85,3.67,4.7,3.94.93,7.62-1.22,11.15-2.64,5.43-2.2,10.46-5.29,16-7.26a40.38,40.38,0,0,1,7.44-1.65c1.18-.06,2.37-.13,3.55-.26l1.29-.78c.53-2.24-.72-4.27-1.18-6.38-.67-2.27-.46-4.67-1.19-6.92C431.24,181.06,427.08,182.93,422.94,184.05Zm59.47,7.34a3.85,3.85,0,0,0,1.34,2,23.93,23.93,0,0,0,8.81,3.67,51.62,51.62,0,0,0,5.38,1.2c-.36-.54-.7-1.08-1.05-1.62C493.91,192.06,487.68,189,482.41,191.39Z" transform="translate(-140.37 -87.1)"/><path d="M249,185.71c4.38-2.15,9.31-2.81,14.14-3a147.65,147.65,0,0,1,19.84.5c6.37.6,12.89,1.3,18.82,3.92A62.86,62.86,0,0,1,316.39,196c4.31,3.46,9.51,6.14,15.1,6.56,4.13,0,8.43.35,12.08,2.48,1.18,2.61-1.4,4.6-3.25,6-4,3.16-9.5,4.05-12.72,8.15-2.56,4.46-1.09,9.81-1.8,14.66,0,4.68-.93,9.67-4.14,13.27-3.39,3.79-7.51,7.37-12.63,8.4-4.06,2.61-7.44,8-5.34,12.85A58.58,58.58,0,0,0,318,285.28c2.89,2.28,6.39,4.23,10.16,4.18,2.89-.12,4.69-2.67,7.15-3.8,4.12-1.56,8.31,4.18,6,7.77-2.26,4.1-7.1,5.62-11.37,6.61-4.72.41-10,1.11-14.16-1.78-8.27-5.74-14-14.42-22.19-20.26a4.47,4.47,0,0,0-6.25.28c-2.42,2-4.59-1-5.81-2.86-1.39-2.28-4.4-2.2-6.65-1.5a101.29,101.29,0,0,0-18,7.47c-2.65,1.26-5.26,3.17-8.31,3,1.26-2.54,3.59-4.25,5.81-5.89a25.18,25.18,0,0,1,11.68-4.74c6.27-1.72,10.53-7,15.14-11.24,6.72-6.25,14.39-11.39,22.15-16.27,3-1.94,6.55-3.58,8.54-6.75,2.24-3.35,2.43-7.49,2.84-11.36.06-3.1.76-6.61-1.06-9.36-2.16-2.61-5.63-3.45-8.57-4.86-11.31-3.69-23.23-5-35-6.15a192,192,0,0,1-25.51-3.42,9.68,9.68,0,0,1-7.09-5.56c-.76-2.15.67-4.11,2-5.65A30.23,30.23,0,0,1,249,185.71Zm11.59,8.47c0,.19,0,.58,0,.78a139,139,0,0,0,15.81,0c0-.19.07-.57.1-.77A49.44,49.44,0,0,0,260.61,194.18Z" transform="translate(-140.37 -87.1)"/><path d="M518.24,194.19a10.32,10.32,0,0,1,3.55,0c6.42.9,12.92,1.56,19.15,3.43.59,2.94-2.92,3.72-5,4.71a32.41,32.41,0,0,1-13.18,1.08c1.41-1.28,3.52-1,5.25-1.54,1.38-.46,3.34-.19,4.08-1.72C527.7,197.71,522.74,196.47,518.24,194.19Z" transform="translate(-140.37 -87.1)"/><path d="M221.39,197.54a16.12,16.12,0,0,1,6.83-.51c1.31.24,2,1.39,2.71,2.42a7.85,7.85,0,0,1-4,1.76,99.56,99.56,0,0,1-10.65.36c-8.12.62-16.26-.73-24.37,0a14.76,14.76,0,0,0-9.15,4.32,52.72,52.72,0,0,1-10.16,8.63c-2.15,1.4-4.59,2.43-6.36,4.34-5.25,5.29-7.87,12.67-8.78,20-.49,5.58,1,11.09,2.2,16.49,1,4,2,8.19,3.94,11.94a18.33,18.33,0,0,0,6.21,5.7c4.11,2.37,8.48,4.26,12.71,6.4,3,1.55,6.3,2.67,9.12,4.64,0,.3.05.91.08,1.22-1.86.57-3.68-.42-5.45-.87-7.84-2.73-15.71-5.9-22.29-11.08a15.3,15.3,0,0,1-5.66-8.91c-2-8.13-4-16.41-3.71-24.83-.28-6.28,2.24-12.22,5.06-17.68a28,28,0,0,1,4.55-6.74c3.39-1.15,6.1-3.59,8.91-5.72,4.84-3.87,9.28-8.94,15.69-10.06C199.66,197.84,210.65,199.52,221.39,197.54Z" transform="translate(-140.37 -87.1)"/><path d="M565,199.28c12.58-.06,25.25-.85,37.73,1.18a17.59,17.59,0,0,1,6.78,2.21,45,45,0,0,1,12.2,11.54c2.3,3.23,4.6,6.56,5.87,10.35,1.74,4.9,1.69,10.19,1.83,15.33a185.2,185.2,0,0,1-1.52,30.6c-.57,4-1.15,8-3,11.6a29,29,0,0,1-8.31,9.82A63,63,0,0,1,606.51,297c-3.83,1.55-7.71,3.23-11.88,3.63.84-2.06,3.22-2.68,4.91-3.87,6.59-4.1,14.44-6.5,19.69-12.47,3.42-4,5-9.16,5.73-14.27,1.84-10.95,2-22.1,1.67-33.17a32.2,32.2,0,0,0-2.67-12,74.52,74.52,0,0,0-11.45-16.08c-1.81-1.91-3.79-4-6.54-4.39-13.5-2.53-27.25-3.23-40.91-4.38C565,199.83,565,199.46,565,199.28Z" transform="translate(-140.37 -87.1)"/><path d="M516.75,207.19c2.38-.44,5.23-.83,7.3.73,1.32,1.13.64,2.89.28,4.31C521.73,210.67,518.84,209.44,516.75,207.19Z" transform="translate(-140.37 -87.1)"/><path d="M450.48,212.84a5.85,5.85,0,0,1,7-3.09c4,.93,6,4.76,9.08,7.08a58.36,58.36,0,0,0,14,7.66c5.29,2,10.84,3.69,16.55,3.72,7.75-.4,15.2-2.85,22.49-5.33a193.34,193.34,0,0,0,21.2-9.08,36.66,36.66,0,0,1,10.45-3.13,94.92,94.92,0,0,1,27.65-.54c9,1.29,16.76,6.85,22.47,13.66a50.84,50.84,0,0,1,12.13,29.77,55.31,55.31,0,0,1-6.74,26.85c-1.45,2.34-3,4.92-5.54,6.19a4.15,4.15,0,0,1-5.45-3.73,36,36,0,0,1,2.67-11.67c2-5.1,3.91-10.37,4.43-15.87-.2-6.12-3-11.81-5.94-17s-6.78-10-11.75-13.45a33.6,33.6,0,0,0-13.17-3.9l-.29-.22a104,104,0,0,0-14.23-.22c-2.49.27-5.12.68-7.18,2.21-3,2.16-6.38,3.53-9.7,5-12.09,5.15-24.72,9.53-37.88,10.72-9.13.38-18.59.59-27.23-2.89A58.89,58.89,0,0,1,453.8,220C452.2,218,450.2,215.63,450.48,212.84Z" transform="translate(-140.37 -87.1)"/><path d="M190.25,213.91a28.17,28.17,0,0,1,3.77-.24c0,.26,0,.77,0,1-3.57,3.42-8.3,5.05-12.49,7.51a11.75,11.75,0,0,0-5.2,7.41c-1.24,4.69-1.68,9.54-2.45,14.32-.19,3.3-.84,6.8.45,9.95,2.72,5.82,9.92,8.38,11.87,14.65a6.45,6.45,0,0,1-3.63-.94,31.92,31.92,0,0,1-8.79-7.62,12.56,12.56,0,0,1-3-8.05,105.88,105.88,0,0,1,3.1-25.5c.78-2.39,1.31-5.15,3.48-6.71C181.23,217,185.77,215.39,190.25,213.91Z" transform="translate(-140.37 -87.1)"/><path d="M191.46,226.36a47.13,47.13,0,0,1,15.23-3.4c6.61-.16,13.46-.44,19.74,2,6.72,2.56,12,7.67,18.09,11.26a9.34,9.34,0,0,0,6.94,1.22c4.8-2,9.34-5,14.72-5a5.18,5.18,0,0,1,2.57,6.83c-1.76,4.41-6.22,7.11-10.61,8.38a69.88,69.88,0,0,1-17,2.12c-3.79-.26-8.72-.13-10.76-4-1.86-4.07-3.88-8.75-8.34-10.55-6.84-2.37-14.43-2-21.27.2-4.13,1.18-7.35,4.44-11.64,5.17-2.95,1-6-2.09-5.51-5C184.1,231.26,188,228.45,191.46,226.36Z" transform="translate(-140.37 -87.1)"/><path d="M556.88,231c1-1.35,3.29-2.14,4.58-.66,5,4.82,4,12.61,8,18a16.12,16.12,0,0,0,6.74,5.13c4.63,2,9.33,3.88,14.1,5.53,2.31.7,4.53,2.92,3.52,5.51-6.06,4-13.65,1.35-20.28,3.11-4.4,1.31-6.1,6.2-7,10.25-.81,2.5.53,4.9.69,7.38a18.08,18.08,0,0,1-1.69,2.48c-4.26,4.12-7.51,9.11-11,13.88-5.48,7.83-10.53,16-16.37,23.54-6.9,9.08-13.91,18.17-22.34,25.9a290.53,290.53,0,0,1-24.24,19.76,249.56,249.56,0,0,1-28.37,18.5c-12.05,6.2-25,10.47-38.07,13.91-24.69,6.53-50.25,9-75.73,9.54l-.35.21c-18.5.32-37,.35-55.51-.62-8.27-.63-16.57-1.1-24.79-2.3-13.19-2-26.65-3.69-39.05-8.91a41.94,41.94,0,0,1-19.38-15.63c-6-9.47-10.36-20.17-11.61-31.38a284.54,284.54,0,0,1-1.59-33.29c0-15.32.87-30.73,4.09-45.74.92-3.6,1.76-7.4,4.05-10.43a11.68,11.68,0,0,0,3.43-4c2.11-3.94,1.59-8.67,3.68-12.6.68-1.4,2.14-2.66,3.8-2.27s2.26,2,3,3.25c2.28,7.1,2.06,14.73,4.5,21.79a26.69,26.69,0,0,0,6.3,10.81c4.78,4.87,10.69,8.41,16.66,11.61A137.59,137.59,0,0,0,279.54,305c12.23,2.7,24.79,3.38,37.28,3.25,14.76-.09,29.47-1.54,44.11-3.26,27.12-3.52,53.44-11.27,79.55-19.16,19.24-6,38.67-11.57,57.4-19.12,11.79-4.65,23.48-9.59,34.78-15.35a140.37,140.37,0,0,0,16.25-9.19c2.25-1.64,4.75-3.36,5.74-6.08C555.19,234.35,555.53,232.41,556.88,231ZM542.7,259.69c-8.44,4.08-16.88,8.21-25.07,12.77-3,1.82-6.21,3.76-7.72,7.05-1.47,3-1.28,6.41-1.69,9.64a37,37,0,0,0,.59,11.73,42.36,42.36,0,0,0,7.74-2.94c7-3.23,14-6.53,20.79-10.09a64.41,64.41,0,0,0,12.12-7.77,27.29,27.29,0,0,0,7-10.54c1.54-4,2.93-8.25,2.44-12.58,0-1.42-1.44-2-2.56-2.41C551.51,255.35,547.12,257.65,542.7,259.69Zm-328.16,23c-2.19,2.82-4.33,6.17-4.06,9.88,3.2-2.15,4.77-6.15,5.2-9.86Zm258.64,5.87c-10.8,3.39-21.72,6.41-32.54,9.74-2.77,1-5.87,1.7-8,3.88-1.63,1.94-.6,4.6-.18,6.8,1.38,5.43,2.11,11.13,4.73,16.15,3.71-.82,7.15-2.53,10.73-3.78,9.94-3.87,19.8-8.43,30.41-10.11,5.18-2.37,9.15-6.71,12.74-11a38,38,0,0,0,6.41-10.49,11,11,0,0,0,.26-5.08c-.41-.87-.84-1.74-1.26-2.6a13.31,13.31,0,0,0-3.33.46C486.41,284.19,479.84,286.52,473.18,288.53Zm-247.63,5.89c-2.43,2.72-3.71,6.23-5.06,9.56-1.66,5-3.57,10-4.33,15.2.45,2.9,3.08,4.57,5.34,6.06a3.83,3.83,0,0,0,2.2.85c1.49-1.08,1.65-3.09,2-4.75,1.18-7.85,2.19-15.8,1.62-23.76a13.81,13.81,0,0,0-.67-3.11Zm305.63,10.42c-4.48,2-8.95,4-13.31,6.28-3.21,1.68-6.47,3.63-8.57,6.67-1.89,2.89-2.18,6.42-2.78,9.74-.3,4-.22,9.23,4,11.1,2.41-.25,3.76-2.47,5.38-4,7.4-8.31,13.84-17.43,20.17-26.56a50.32,50.32,0,0,0,4-6.5C537,302.19,534.12,303.67,531.18,304.84Zm-291.55,1.38c-1.75,3.23-2,7-2,10.65.25,4.17.6,8.46,2.37,12.31a7.89,7.89,0,0,0,5.19,4.5c2.84.68,5.73,1.18,8.58,1.79,1.4-3,1.09-6.37,1.69-9.55a80.29,80.29,0,0,1,2.22-9.56c.52-2.52-1.51-4.54-3.51-5.69a82.92,82.92,0,0,0-10.69-5.18C242.24,305.05,240.23,304.65,239.63,306.22Zm160.71,3.19-.33.19c-8.44,1.59-16.88,3.23-25.19,5.41l-.33.19c-2.63.77-5.52,2.06-6.6,4.78-1.27,3.28-.92,6.88-1.37,10.31-.28,2.42-.36,5,1.08,7.13a33.24,33.24,0,0,0,3.92,1,92.88,92.88,0,0,0,10.15-.17,179.58,179.58,0,0,0,34.61-6.62c3-1,6.33-1.9,8.26-4.59-.32-2.93-1.28-5.72-1.88-8.58-1-4.17-1.56-8.63-4.13-12.2C412.4,306.78,406.43,308.54,400.34,309.41Zm-129.48,8.82c-1.41,1.68-1.94,3.88-2.59,5.93-.8,2.81-1.89,5.61-1.93,8.58L267,334c2,1.39,4.46,1.7,6.78,2.21a153.62,153.62,0,0,0,27.76,1.92c2.11.06,4.7-.79,5.25-3.09a53.67,53.67,0,0,0,1.09-9.8c0-3.37-3.61-4.53-6.33-5-7.82-1.42-15.7-2.53-23.6-3.4C275.56,316.53,272.79,316.57,270.86,318.23Zm71.44-.1c-7.05.68-14.07,1.6-21.08,2.59a88.23,88.23,0,0,0-2.86,11.91c-.26,1.67-.48,4.07,1.48,4.79,4.29,1.41,8.91.95,13.36,1.06,5.88-.11,11.81.37,17.65-.58a5.41,5.41,0,0,0,3.89-2.52c1-2.85.67-5.94.74-8.91-.06-2.29.21-4.72-.81-6.85a3.91,3.91,0,0,0-3.42-1.95A44.68,44.68,0,0,0,342.3,318.13Zm143.4,9c-10.9,4.86-21.71,10-33.17,13.44-3.3.85-7.08,1.55-9.19,4.54-2.15,2.8-1.33,6.5-.63,9.66a87.12,87.12,0,0,0,8.1,20.25c.92,1.57,1.91,3.3,3.6,4.16,2.14.69,4.13-.81,5.93-1.76,10.17-6.29,20.05-13,29.86-19.86,3.35-2.45,6.89-4.72,9.67-7.85a3.66,3.66,0,0,0,0-5.16c-2.88-3.3-4.11-7.69-4.49-12-.44-2.54.32-5.29-1-7.64C491.27,324.5,488.44,325.94,485.7,327.1Zm-77.77,27.71c-1,.3-2,.62-3,.93-5.86,1.87-11.75,3.63-17.73,5.05-2.53.64-5.16,1.27-7.33,2.78-1.9,1.38-2.35,3.85-2.6,6a57.57,57.57,0,0,0,.17,10.42,115.77,115.77,0,0,0,.72,13.15,11.42,11.42,0,0,0,1.75,5.26,6.87,6.87,0,0,0,3,1.13c4.2.23,8.35-.63,12.5-1.19A275.33,275.33,0,0,0,432.81,389c2.31-.84,4.75-1.61,6.63-3.25,1.49-1.25,1-3.46.58-5.08a60.1,60.1,0,0,0-5.81-12.36c-3-5.66-3.67-12.15-3.62-18.47a2.82,2.82,0,0,0-3.69-1.5C420.44,350.08,414.32,352.86,407.93,354.81ZM211.46,357c-.11,3.21,1.49,6.12,2.53,9.07,2.47,5.71,4.74,11.51,7.37,17.15l1.35.15a5.87,5.87,0,0,0,.31-3.15c-1.42-6.33-4.49-12.14-7.69-17.72A27.81,27.81,0,0,0,211.46,357Zm21,10.64c.95,5.15,3.74,10.16,2.73,15.52-1.3,3.21-5.28,1.23-7.8,2.5a4.29,4.29,0,0,0,1.56,2.26c3.81,2.73,8.44,3.92,12.9,5.17,2.89.75,5.79,1.81,8.83,1.47a7.62,7.62,0,0,0-.7-2.89c-1.79-4.16-3.65-8.3-5.7-12.34-2.31-4.46-4.84-8.94-8.57-12.37-.83-.2-1.66-.42-2.49-.61C233,366.63,232.61,367.28,232.43,367.6ZM349.67,369c-5.31.61-10.63,1.33-16,1.42l-.34.21c-2.5.13-5.11.16-7.37,1.34-1.47.8-1.85,2.68-1.85,4.22.53,6.21,2.12,12.27,3.23,18.41.54,2.53.9,5.32,2.94,7.16,4.18,1.64,8.73,1.17,13.12,1.25a147.44,147.44,0,0,0,17.95-.81c1.5-.23,3.29-.36,4.1-1.88,1.46-2.91,1.34-6.3,1.41-9.48a154.66,154.66,0,0,0-1.3-20.63c-.28-1.52-.91-4.24-3-3.8A77,77,0,0,1,349.67,369Zm-95.3,1.79c-.18,1.92.79,3.61,1.58,5.27,2.65,5.33,5.62,10.61,6.91,16.47.33,1.24-.34,2.53,0,3.74a9.45,9.45,0,0,0,4.14,2,70.32,70.32,0,0,0,9.69,1.66,7.66,7.66,0,0,0,2.58-.42,5.59,5.59,0,0,0-.11-2.79c-1.23-3.28-2.43-6.58-3.47-9.94-1.48-4.27-2.78-8.8-5.73-12.34-.9-1.29-2.63-1.12-4-1.36C262,372.69,258.33,371.06,254.37,370.77ZM296,373.93c-3.45.26-7.06.07-10.28,1.55L285,376.7c.24,3,1.66,5.79,2.84,8.55a74.22,74.22,0,0,0,8,14.32c1.43,2,4.07,2.32,6.31,2.79,4.35.63,8.94,1.17,13.23-.07,1.69-3.18.2-6.93-.25-10.26-.14-.83-.26-1.65-.39-2.47-1.1-4.84-2.13-9.77-4.42-14.23C305.82,373.44,300.75,373.6,296,373.93Z" transform="translate(-140.37 -87.1)"/><path d="M424.63,250c1.13-.59,2.09.2,2.61,1.18-1.8,2.35-1.27,6.11,1.7,7.18,5.54,1.79,11.46,1.6,17.2,2.14,7.31.21,14.83-.31,21.88,2a3.68,3.68,0,0,1,0,2.84c-12.62-1.4-25.37-1.26-37.92-3.27-2.25-.43-4.65-1.16-6.12-3.05A7.09,7.09,0,0,1,424.63,250Z" transform="translate(-140.37 -87.1)"/><path d="M392.85,250.66c7.35-1.11,15.58-.61,21.83,3.8,3.89,2.67,5.36,7.62,5.15,12.15-.17,4.79.59,9.86-1.48,14.36-1.41,3.26-4.6,5.16-7.51,6.92-1.71.86-3.41,2.15-5.41,2.13a8.59,8.59,0,0,1-3.57-4.8,6.83,6.83,0,0,1,2.51-6.87,12.57,12.57,0,0,0,4.84-10.57,5,5,0,0,0-2.69-4.36c-3.69-2-7.94-2.36-12-3.1-2.49-.39-5.35-.69-7.08-2.74a3.17,3.17,0,0,1,0-4.62C388.88,251.59,390.93,251.08,392.85,250.66Z" transform="translate(-140.37 -87.1)"/><path d="M364.38,270.7c8.28-2.24,17-1.9,25.43-.86a5.89,5.89,0,0,1,4.54,3.57,43.9,43.9,0,0,1,0,5.13,8.38,8.38,0,0,1-4,5.87c-2.93.25-3.71-3.29-6.4-3.61-7.8-2.07-15.94,0-23.82-1.25-2.1-.29-4.59-1.5-4.12-4.05C358,272.8,361.28,271.59,364.38,270.7Z" transform="translate(-140.37 -87.1)"/><path d="M511.05,385.27a9.7,9.7,0,0,1,4-.95c-3.91,2.92-8.3,5.09-12.55,7.44-20.9,11.3-42.68,20.87-64.7,29.77-11.24,4.42-22.59,8.62-34.15,12.14l-.31.16c-15.39,4.75-31.56,5.72-47.53,6.61-12.23.87-24.48,1.37-36.71,2-14.1.47-28.22,1-42.31.32-11.71-.57-23.68-2-34.39-7-9.46-4.33-18.61-10.43-24.08-19.49.27-.24.54-.46.81-.68l1.23.54c4.71,2.63,8.33,6.71,12.63,9.89a75,75,0,0,0,13.36,7.65,76.78,76.78,0,0,0,28.17,6.53c8.1.32,16.2.06,24.29-.09,5.43-.57,10.9-.2,16.33-.76,7.89-.28,15.79-.61,23.68-1.12,6.22-.12,12.43-.62,18.65-.85,11-.77,22.12-1.25,33-3.39,11.42-2.33,22.27-6.7,33.19-10.6C445,415.23,466,406.23,486.5,396.17,494.6,392.36,502.71,388.54,511.05,385.27Z" transform="translate(-140.37 -87.1)"/><path d="M531.74,389.35c3.63-1.62,7.17-3.49,11-4.54-.35,1.85-2.34,2.55-3.65,3.63-10.63,6.75-21.9,12.42-33.12,18.09s-22.48,10.94-33.94,15.91a380.73,380.73,0,0,1-49.87,17.06c-14.13,3.36-28.35,6.33-42.59,9.17-13.89,2.64-27.86,5.11-41.94,6.45l-.35.23c-13.58,1.18-27.18,2.28-40.82,2.59-7.3.59-14.64.23-22,.78-10,.16-19.95.44-29.93.23A61.18,61.18,0,0,1,228.53,457c-6.06-1.81-11.38-5.34-16.73-8.58-4.5-2.82-9.12-5.47-13.23-8.85a10.33,10.33,0,0,1-4-8.64c.13-3.65-.15-7.4.8-11,.5,3.44.56,7,1.55,10.33a14,14,0,0,0,4.27,6.17c4.63,4,10,7,15.24,10.18,5.71,3.37,11.45,7,18,8.55,7.75,1.84,15.78,1.46,23.69,1.48,4.54,0,9.09-.1,13.63-.26,6.17-.51,12.38-.18,18.55-.71,10.39-.3,20.77-.8,31.14-1.62a433.91,433.91,0,0,0,57.49-8.54C392,443,405,440.14,418,437.25c6.18-1.44,12.4-2.76,18.45-4.69,20.82-6.73,40.81-15.77,60.46-25.33C508.69,401.56,520,395,531.74,389.35Z" transform="translate(-140.37 -87.1)"/><path d="M297.1,425.66c-1.15-.24.78-.38,1.06-.42,16.77-.5,33.55-.43,50.33-.06a24.65,24.65,0,0,1,3.52.33c-1.55.1-3.09.15-4.62.39-13.38.31-26.77.17-40.16.13C303.84,426.11,300.48,425.64,297.1,425.66Z" transform="translate(-140.37 -87.1)"/></g><g id="White"><path class="cls-1" d="M406.09,98.19c29.88-.41,59.76-.27,89.64-.09,4.57-.09,9.12.34,13.69.38a100.89,100.89,0,0,1,18.11,1.8c4.79,1,9,3.6,13.18,6.12a94.26,94.26,0,0,1,12.89,10.52,90.82,90.82,0,0,1,11.24,12.53,209.64,209.64,0,0,1,15.77,26.32c2.25,4.57,4.38,9.21,6.66,13.77,3.82,7.05,7.4,14.43,13.07,20.23.79.68,1.69,2.44.29,2.94-5.82,1.3-11.84.53-17.73,1-2.91.28-5.86-.17-8.73.46,6.73,1.29,13.66,1.32,20.44,2.39,3.24.43,6.45,1,9.67,1.64,3.66.93,7.6,1.57,10.64,4,7.41,5.75,13.38,13.1,19,20.54,4.25,6,8.69,12.24,10.27,19.57,1.62,6.69,1.18,13.7-.28,20.37-.21.76-.38,1.52-.55,2.28a74.63,74.63,0,0,1-11.83,24.27c-4.7,6.77-11,12.81-18.87,15.59-3.57,1.7-7.62,3-10.23,6.08,3.54.57,6.76-1.35,10.22-1.7-.76,2.56-2.9,4.3-4.62,6.22a87.62,87.62,0,0,0-11.2,15.37c-5.61,9.13-9.06,19.44-15.39,28.14-7.3,10.95-17.35,19.6-27,28.44a139.44,139.44,0,0,1-11.1,9.19c-8,5.53-16.4,10.41-24.82,15.24-10.5,5.89-21.1,11.64-32.05,16.66-3.93,1.84-8,3.22-12,5-11.4,5-22.6,10.33-33.79,15.74-13.44,6.64-26.87,13.35-40.75,19-5.25,2-10.44,4.31-15.93,5.59-10.47,1.48-20.74,4.11-31,6.55-12.12,2.9-24.08,6.41-36.24,9.17l-.31.17a245.21,245.21,0,0,1-30.08,5.05c-7.73.66-15.47.87-23.21,1.26-12.42.09-24.94.77-37.27-1.17-9.5-1.55-18.36-5.62-26.81-10-9-4.53-16.14-12.06-21.81-20.25-3.05-5-6.31-10.15-6.87-16.1-.5-6.63.56-13.22,1.08-19.81.88-8.28,1-16.6,1.48-24.9.2-10.54.75-21.05.71-31.59,0-18.46.1-36.91-.12-55.37-.39-7-1-14.07-3.48-20.67-4.57-12.17-12.17-23-16.39-35.28-2.77-8-2.62-16.51-2.5-24.83.49-6.28.94-12.65,2.89-18.68,1-3.19,3.14-5.77,5.19-8.33a99.52,99.52,0,0,1,9.37-9.34A70.75,70.75,0,0,0,182,186c4.59-6.44,6.17-14.45,6.77-22.18a30.54,30.54,0,0,1,1.45-9.19,26.45,26.45,0,0,1,6.33-10.54c7.2-6.62,15.54-11.82,24-16.66A159.11,159.11,0,0,1,247.87,115c6.77-2.26,13.94-2.79,21-3.33,11.11-.38,22.24-.29,33.33.39,11.68.31,23.36,0,35-.68,17.16-1.17,34.18-3.8,51.33-5.14,12-1,24.09-2.2,36.15-1.32,11.87,1.16,23.79,3,35.09,6.91a305.52,305.52,0,0,1,59.37,28.71c7.13,4.24,13.39,9.77,20.52,14a14.94,14.94,0,0,0,4.06,1.7c-.64-2.22-2.79-3.37-4.38-4.83-8.19-6.43-17-12.08-25.72-17.67-9-5.64-18.16-11.24-27.83-15.76-18-7.7-36.89-14.24-56.59-15.43-16.22-1.18-32.53-.27-48.69,1.34-8.37,1.41-16.82,2.2-25.26,3-5.15.21-10.26.85-15.41.93l-.33.25c-15.48.6-30.95,1.76-46.45,1.41a23.31,23.31,0,0,1-6.17-.79c.08-.44.16-.88.25-1.32,4.21-1.73,8.74-2.38,13.21-3.07,14.05-2,28.24-2.75,42.38-3.78,12.26-.48,24.5-1.29,36.77-1.5C388.38,98.4,397.25,98.67,406.09,98.19Zm-31.32,23.19c-10.51,2.2-21.21,3.17-31.89,4.09-5.28.33-10.57.32-15.85.57-6.94-.41-13.92-.12-20.85-.75q-17.83-.77-35.6-2.78c-6.78-.34-13.64-1.31-20.41-.15a16.24,16.24,0,0,0-9.72,5.77c-.46.49-1.23,2.15.09,2,3.62-.22,6.31-3.17,9.63-4.36a34,34,0,0,1,12.43-.86c8.32.41,16.57,1.57,24.86,2.19,25.38,1.94,51,2.18,76.3-1,7.15-.91,14.18-2.5,21.32-3.44,20.19-3,40.71-1.13,60.73,2.17a129.8,129.8,0,0,1,31.53,9.34A142.1,142.1,0,0,1,508,151.69c4.94,3.69,9,8.38,13.6,12.42,2.3,2,4.6,4.09,7.47,5.18a6.62,6.62,0,0,0-1.34-2.92c-8.19-11.08-19.51-19.33-31.17-26.43a185.21,185.21,0,0,0-30.18-13.45c-7.78-2.85-16-4.06-24.16-5.27-6-.77-12-1.58-18.1-2C407.66,117.79,391,117.91,374.77,121.38Zm16.45,14.72c-.09.21-.26.65-.34.86,5.56,1,11.26.54,16.87.5,11.32-.83,22.67-.25,33.95.66A121.14,121.14,0,0,1,477.21,147a65.94,65.94,0,0,1,12.93,7.31,96.47,96.47,0,0,1,14.5,12c2.64,2.61,5.38,5.24,8.71,6.94l.77-1c-1.56-3.42-4.35-6-6.94-8.63A107.46,107.46,0,0,0,485,146.78a107.93,107.93,0,0,0-21.31-8.07c-9.19-2.63-18.76-3.23-28.24-3.92-7.89-.24-15.76-.64-23.65-.51C404.88,134.38,397.91,134.41,391.22,136.1Zm4.21,8A24.83,24.83,0,0,0,388.27,161a53.71,53.71,0,0,0,.25,9.74c1.19-3.29,1.36-6.84,2.4-10.17a39.33,39.33,0,0,1,8.43-15.32,29.47,29.47,0,0,0,3.51-5.06l-.43.4c0-.33-.1-1-.13-1.3C399.55,140.07,397.41,142.08,395.43,144.06ZM260.6,142.72c-7.86,3.63-16.13,7.48-21.6,14.46a21.5,21.5,0,0,0-4.26,14.89l.94,0c2.11-3.47,2.88-7.57,5.17-10.94,3.28-5,8.36-8.39,13.46-11.28,5.38-3.07,11-6.31,17.31-6.7,8.53-.45,17,.63,25.51,1.34,6.67.82,13.38,1.49,20,2.9,2.8.75,5.71,1.48,8.63.92l-.06-1.5c-2.56-1.6-5.54-2.21-8.46-2.77-10.57-1.86-21.28-2.71-31.95-3.64C277,139.61,268.29,139,260.6,142.72Zm52.5,18c2.81,4.1,4,9,4.84,13.87.7,3.88.11,7.88,1.11,11.72.77-8,1.92-16.29-.85-24-1.07-2.88-2.71-6.34-6.16-6.76A6.26,6.26,0,0,0,313.1,160.69Zm102.62,13.47a115.17,115.17,0,0,0-29.1,17.64c-2,2-4.3,3.92-5.46,6.58-1,2.7-.52,5.65,0,8.4,1.08,2.8,3.38,4.91,5.62,6.82,4,3.54,8.69,6.23,13.17,9.14,10.55-4.48,20.47-10.52,31.49-13.88a102,102,0,0,1,40.18-4.16c9,.62,17.58,3.62,26.58,3.91,4.93.1,10.05-2.2,12.64-6.51,1.52-3.3-.82-6.73-2.61-9.41A53.41,53.41,0,0,0,483,175l-1.34-.27-.28-.24a134.06,134.06,0,0,0-38-4.72C434,169.48,424.39,170.35,415.72,174.16ZM249,185.71a30.23,30.23,0,0,0-9.57,7.47c-1.3,1.54-2.73,3.5-2,5.65a9.68,9.68,0,0,0,7.09,5.56,192,192,0,0,0,25.51,3.42c11.79,1.12,23.71,2.46,35,6.15,2.94,1.41,6.41,2.25,8.57,4.86,1.82,2.75,1.12,6.26,1.06,9.36-.41,3.87-.6,8-2.84,11.36-2,3.17-5.49,4.81-8.54,6.75-7.76,4.88-15.43,10-22.15,16.27-4.61,4.23-8.87,9.52-15.14,11.24a25.18,25.18,0,0,0-11.68,4.74c-2.22,1.64-4.55,3.35-5.81,5.89,3.05.13,5.66-1.78,8.31-3a101.29,101.29,0,0,1,18-7.47c2.25-.7,5.26-.78,6.65,1.5,1.22,1.84,3.39,4.84,5.81,2.86a4.47,4.47,0,0,1,6.25-.28c8.19,5.84,13.92,14.52,22.19,20.26,4.14,2.89,9.44,2.19,14.16,1.78,4.27-1,9.11-2.51,11.37-6.61,2.28-3.59-1.91-9.33-6-7.77-2.46,1.13-4.26,3.68-7.15,3.8-3.77.05-7.27-1.9-10.16-4.18a58.58,58.58,0,0,1-14.27-16.94c-2.1-4.86,1.28-10.24,5.34-12.85,5.12-1,9.24-4.61,12.63-8.4,3.21-3.6,4.1-8.59,4.14-13.27.71-4.85-.76-10.2,1.8-14.66,3.22-4.1,8.76-5,12.72-8.15,1.85-1.37,4.43-3.36,3.25-6-3.65-2.13-7.95-2.44-12.08-2.48-5.59-.42-10.79-3.1-15.1-6.56a62.86,62.86,0,0,0-14.57-8.89c-5.93-2.62-12.45-3.32-18.82-3.92a147.65,147.65,0,0,0-19.84-.5C258.33,182.9,253.4,183.56,249,185.71Zm269.22,8.48c4.5,2.28,9.46,3.52,13.9,5.95-.74,1.53-2.7,1.26-4.08,1.72-1.73.51-3.84.26-5.25,1.54A32.41,32.41,0,0,0,536,202.32c2-1,5.54-1.77,5-4.71-6.23-1.87-12.73-2.53-19.15-3.43A10.32,10.32,0,0,0,518.24,194.19Zm-296.85,3.35c-10.74,2-21.73.3-32.52,1.76-6.41,1.12-10.85,6.19-15.69,10.06-2.81,2.13-5.52,4.57-8.91,5.72a28,28,0,0,0-4.55,6.74c-2.82,5.46-5.34,11.4-5.06,17.68-.26,8.42,1.71,16.7,3.71,24.83a15.3,15.3,0,0,0,5.66,8.91c6.58,5.18,14.45,8.35,22.29,11.08,1.77.45,3.59,1.44,5.45.87,0-.31-.06-.92-.08-1.22-2.82-2-6.09-3.09-9.12-4.64-4.23-2.14-8.6-4-12.71-6.4a18.33,18.33,0,0,1-6.21-5.7c-2-3.75-2.89-7.89-3.94-11.94-1.23-5.4-2.69-10.91-2.2-16.49.91-7.28,3.53-14.66,8.78-20,1.77-1.91,4.21-2.94,6.36-4.34a52.72,52.72,0,0,0,10.16-8.63,14.76,14.76,0,0,1,9.15-4.32c8.11-.72,16.25.63,24.37,0a99.56,99.56,0,0,0,10.65-.36,7.85,7.85,0,0,0,4-1.76c-.68-1-1.4-2.18-2.71-2.42A16.12,16.12,0,0,0,221.39,197.54ZM565,199.28c0,.18,0,.55,0,.74,13.66,1.15,27.41,1.85,40.91,4.38,2.75.37,4.73,2.48,6.54,4.39A74.52,74.52,0,0,1,624,224.87a32.2,32.2,0,0,1,2.67,12c.36,11.07.17,22.22-1.67,33.17-.73,5.11-2.31,10.29-5.73,14.27-5.25,6-13.1,8.37-19.69,12.47-1.69,1.19-4.07,1.81-4.91,3.87,4.17-.4,8-2.08,11.88-3.63a63,63,0,0,0,10.06-5.12,29,29,0,0,0,8.31-9.82c1.87-3.58,2.45-7.64,3-11.6a185.2,185.2,0,0,0,1.52-30.6c-.14-5.14-.09-10.43-1.83-15.33-1.27-3.79-3.57-7.12-5.87-10.35a45,45,0,0,0-12.2-11.54,17.59,17.59,0,0,0-6.78-2.21C590.26,198.43,577.59,199.22,565,199.28Zm-48.26,7.91c2.09,2.25,5,3.48,7.58,5,.36-1.42,1-3.18-.28-4.31C522,206.36,519.13,206.75,516.75,207.19Zm-66.27,5.65c-.28,2.79,1.72,5.11,3.32,7.18a58.89,58.89,0,0,0,21.65,15.53c8.64,3.48,18.1,3.27,27.23,2.89,13.16-1.19,25.79-5.57,37.88-10.72,3.32-1.48,6.74-2.85,9.7-5,2.06-1.53,4.69-1.94,7.18-2.21a104,104,0,0,1,14.23.22l.29.22a33.6,33.6,0,0,1,13.17,3.9c5,3.4,8.67,8.33,11.75,13.45s5.74,10.92,5.94,17c-.52,5.5-2.39,10.77-4.43,15.87a36,36,0,0,0-2.67,11.67,4.15,4.15,0,0,0,5.45,3.73c2.55-1.27,4.09-3.85,5.54-6.19a55.31,55.31,0,0,0,6.74-26.85,50.84,50.84,0,0,0-12.13-29.77c-5.71-6.81-13.5-12.37-22.47-13.66a94.92,94.92,0,0,0-27.65.54,36.66,36.66,0,0,0-10.45,3.13,193.34,193.34,0,0,1-21.2,9.08c-7.29,2.48-14.74,4.93-22.49,5.33-5.71,0-11.26-1.68-16.55-3.72a58.36,58.36,0,0,1-14-7.66c-3.05-2.32-5.11-6.15-9.08-7.08A5.85,5.85,0,0,0,450.48,212.84Zm-260.23,1.07c-4.48,1.48-9,3.08-12.91,5.81-2.17,1.56-2.7,4.32-3.48,6.71a105.88,105.88,0,0,0-3.1,25.5,12.56,12.56,0,0,0,3,8.05,31.92,31.92,0,0,0,8.79,7.62,6.45,6.45,0,0,0,3.63.94c-1.95-6.27-9.15-8.83-11.87-14.65-1.29-3.15-.64-6.65-.45-9.95.77-4.78,1.21-9.63,2.45-14.32a11.75,11.75,0,0,1,5.2-7.41c4.19-2.46,8.92-4.09,12.49-7.51,0-.26,0-.77,0-1A28.17,28.17,0,0,0,190.25,213.91Zm1.21,12.45c-3.42,2.09-7.36,4.9-7.81,9.2-.47,2.91,2.56,6,5.51,5,4.29-.73,7.51-4,11.64-5.17,6.84-2.16,14.43-2.57,21.27-.2,4.46,1.8,6.48,6.48,8.34,10.55,2,3.9,7,3.77,10.76,4a69.88,69.88,0,0,0,17-2.12c4.39-1.27,8.85-4,10.61-8.38a5.18,5.18,0,0,0-2.57-6.83c-5.38-.06-9.92,3-14.72,5a9.34,9.34,0,0,1-6.94-1.22c-6.13-3.59-11.37-8.7-18.09-11.26-6.28-2.4-13.13-2.12-19.74-2A47.13,47.13,0,0,0,191.46,226.36ZM556.88,231c-1.35,1.39-1.69,3.33-2.23,5.11-1,2.72-3.49,4.44-5.74,6.08a140.37,140.37,0,0,1-16.25,9.19c-11.3,5.76-23,10.7-34.78,15.35-18.73,7.55-38.16,13.09-57.4,19.12-26.11,7.89-52.43,15.64-79.55,19.16-14.64,1.72-29.35,3.17-44.11,3.26-12.49.13-25.05-.55-37.28-3.25a137.59,137.59,0,0,1-32.8-11.78c-6-3.2-11.88-6.74-16.66-11.61a26.69,26.69,0,0,1-6.3-10.81c-2.44-7.06-2.22-14.69-4.5-21.79-.74-1.26-1.35-3-3-3.25s-3.12.87-3.8,2.27c-2.09,3.93-1.57,8.66-3.68,12.6a11.68,11.68,0,0,1-3.43,4c-2.29,3-3.13,6.83-4.05,10.43-3.22,15-4.13,30.42-4.09,45.74a284.54,284.54,0,0,0,1.59,33.29c1.25,11.21,5.59,21.91,11.61,31.38a41.94,41.94,0,0,0,19.38,15.63c12.4,5.22,25.86,6.95,39.05,8.91,8.22,1.2,16.52,1.67,24.79,2.3,18.49,1,37,.94,55.51.62l.35-.21c25.48-.49,51-3,75.73-9.54,13.08-3.44,26-7.71,38.07-13.91a249.56,249.56,0,0,0,28.37-18.5,290.53,290.53,0,0,0,24.24-19.76c8.43-7.73,15.44-16.82,22.34-25.9,5.84-7.58,10.89-15.71,16.37-23.54,3.46-4.77,6.71-9.76,11-13.88a18.08,18.08,0,0,0,1.69-2.48c-.16-2.48-1.5-4.88-.69-7.38.86-4.05,2.56-8.94,7-10.25,6.63-1.76,14.22.87,20.28-3.11,1-2.59-1.21-4.81-3.52-5.51-4.77-1.65-9.47-3.51-14.1-5.53a16.12,16.12,0,0,1-6.74-5.13c-4-5.37-3.05-13.16-8-18C560.17,228.88,557.92,229.67,556.88,231ZM424.63,250a7.09,7.09,0,0,0-.67,9c1.47,1.89,3.87,2.62,6.12,3.05,12.55,2,25.3,1.87,37.92,3.27a3.68,3.68,0,0,0,0-2.84c-7-2.29-14.57-1.77-21.88-2-5.74-.54-11.66-.35-17.2-2.14-3-1.07-3.5-4.83-1.7-7.18C426.72,250.15,425.76,249.36,424.63,250Zm-31.78.71c-1.92.42-4,.93-5.43,2.3a3.17,3.17,0,0,0,0,4.62c1.73,2.05,4.59,2.35,7.08,2.74,4.05.74,8.3,1.13,12,3.1a5,5,0,0,1,2.69,4.36,12.57,12.57,0,0,1-4.84,10.57,6.83,6.83,0,0,0-2.51,6.87,8.59,8.59,0,0,0,3.57,4.8c2,0,3.7-1.27,5.41-2.13,2.91-1.76,6.1-3.66,7.51-6.92,2.07-4.5,1.31-9.57,1.48-14.36.21-4.53-1.26-9.48-5.15-12.15C408.43,250.05,400.2,249.55,392.85,250.66Zm-28.47,20c-3.1.89-6.35,2.1-8.33,4.8-.47,2.55,2,3.76,4.12,4.05,7.88,1.28,16-.82,23.82,1.25,2.69.32,3.47,3.86,6.4,3.61a8.38,8.38,0,0,0,4-5.87,43.9,43.9,0,0,0,0-5.13,5.89,5.89,0,0,0-4.54-3.57C381.38,268.8,372.66,268.46,364.38,270.7ZM511.05,385.27c-8.34,3.27-16.45,7.09-24.55,10.9C466,406.23,445,415.23,423.64,423.36c-10.92,3.9-21.77,8.27-33.19,10.6-10.87,2.14-22,2.62-33,3.39-6.22.23-12.43.73-18.65.85-7.89.51-15.79.84-23.68,1.12-5.43.56-10.9.19-16.33.76-8.09.15-16.19.41-24.29.09a76.78,76.78,0,0,1-28.17-6.53A75,75,0,0,1,233,426c-4.3-3.18-7.92-7.26-12.63-9.89l-1.23-.54c-.27.22-.54.44-.81.68,5.47,9.06,14.62,15.16,24.08,19.49,10.71,5.07,22.68,6.47,34.39,7,14.09.69,28.21.15,42.31-.32,12.23-.64,24.48-1.14,36.71-2,16-.89,32.14-1.86,47.53-6.61l.31-.16c11.56-3.52,22.91-7.72,34.15-12.14,22-8.9,43.8-18.47,64.7-29.77,4.25-2.35,8.64-4.52,12.55-7.44A9.7,9.7,0,0,0,511.05,385.27Zm20.69,4.08c-11.74,5.68-23.05,12.21-34.8,17.88-19.65,9.56-39.64,18.6-60.46,25.33-6.05,1.93-12.27,3.25-18.45,4.69-13,2.89-26,5.7-39.13,8.3a433.91,433.91,0,0,1-57.49,8.54c-10.37.82-20.75,1.32-31.14,1.62-6.17.53-12.38.2-18.55.71-4.54.16-9.09.22-13.63.26-7.91,0-15.94.36-23.69-1.48-6.52-1.58-12.26-5.18-18-8.55-5.21-3.18-10.61-6.16-15.24-10.18a14,14,0,0,1-4.27-6.17c-1-3.36-1-6.89-1.55-10.33-1,3.57-.67,7.32-.8,11a10.33,10.33,0,0,0,4,8.64c4.11,3.38,8.73,6,13.23,8.85,5.35,3.24,10.67,6.77,16.73,8.58A61.18,61.18,0,0,0,244.6,459c10,.21,20-.07,29.93-.23,7.31-.55,14.65-.19,22-.78,13.64-.31,27.24-1.41,40.82-2.59l.35-.23c14.08-1.34,28.05-3.81,41.94-6.45,14.24-2.84,28.46-5.81,42.59-9.17a380.73,380.73,0,0,0,49.87-17.06Q489.24,415,506,406.53c11.22-5.67,22.49-11.34,33.12-18.09,1.31-1.08,3.3-1.78,3.65-3.63C538.91,385.86,535.37,387.73,531.74,389.35ZM297.1,425.66c3.38,0,6.74.45,10.13.37,13.39,0,26.78.18,40.16-.13,1.53-.24,3.07-.29,4.62-.39a24.65,24.65,0,0,0-3.52-.33c-16.78-.37-33.56-.44-50.33.06C297.88,425.28,296,425.42,297.1,425.66Z" transform="translate(-140.37 -87.1)"/><path class="cls-1" d="M422.94,184.05c4.14-1.12,8.3-3,12.68-2.46.73,2.25.52,4.65,1.19,6.92.46,2.11,1.71,4.14,1.18,6.38l-1.29.78c-1.18.13-2.37.2-3.55.26a40.38,40.38,0,0,0-7.44,1.65c-5.53,2-10.56,5.06-16,7.26-3.53,1.42-7.21,3.57-11.15,2.64-1.82-.85-3.86-2.48-3.67-4.7,0-1.77,1.46-3,2.55-4.15C404.66,191.87,413.7,187.35,422.94,184.05Z" transform="translate(-140.37 -87.1)"/><path class="cls-1" d="M482.41,191.39c5.27-2.37,11.5.67,14.48,5.26.35.54.69,1.08,1.05,1.62a51.62,51.62,0,0,1-5.38-1.2,23.93,23.93,0,0,1-8.81-3.67A3.85,3.85,0,0,1,482.41,191.39Z" transform="translate(-140.37 -87.1)"/><path class="cls-1" d="M260.61,194.18a49.44,49.44,0,0,1,15.92,0c0,.2-.07.58-.1.77a139,139,0,0,1-15.81,0C260.62,194.76,260.61,194.37,260.61,194.18Z" transform="translate(-140.37 -87.1)"/><path class="cls-1" d="M542.7,259.69c4.42-2,8.81-4.34,13.66-5.14,1.12.41,2.55,1,2.56,2.41.49,4.33-.9,8.59-2.44,12.58a27.29,27.29,0,0,1-7,10.54,64.41,64.41,0,0,1-12.12,7.77c-6.84,3.56-13.79,6.86-20.79,10.09a42.36,42.36,0,0,1-7.74,2.94,37,37,0,0,1-.59-11.73c.41-3.23.22-6.64,1.69-9.64,1.51-3.29,4.76-5.23,7.72-7.05C525.82,267.9,534.26,263.77,542.7,259.69Z" transform="translate(-140.37 -87.1)"/><path class="cls-1" d="M214.54,282.66l1.14,0c-.43,3.71-2,7.71-5.2,9.86C210.21,288.83,212.35,285.48,214.54,282.66Z" transform="translate(-140.37 -87.1)"/><path class="cls-1" d="M473.18,288.53c6.66-2,13.23-4.34,20-6.06a13.31,13.31,0,0,1,3.33-.46c.42.86.85,1.73,1.26,2.6a11,11,0,0,1-.26,5.08,38,38,0,0,1-6.41,10.49c-3.59,4.32-7.56,8.66-12.74,11-10.61,1.68-20.47,6.24-30.41,10.11-3.58,1.25-7,3-10.73,3.78-2.62-5-3.35-10.72-4.73-16.15-.42-2.2-1.45-4.86.18-6.8,2.13-2.18,5.23-2.89,8-3.88C451.46,294.94,462.38,291.92,473.18,288.53Z" transform="translate(-140.37 -87.1)"/><path class="cls-1" d="M225.55,294.42l1.1.05a13.81,13.81,0,0,1,.67,3.11c.57,8-.44,15.91-1.62,23.76-.35,1.66-.51,3.67-2,4.75a3.83,3.83,0,0,1-2.2-.85c-2.26-1.49-4.89-3.16-5.34-6.06.76-5.23,2.67-10.2,4.33-15.2C221.84,300.65,223.12,297.14,225.55,294.42Z" transform="translate(-140.37 -87.1)"/><path class="cls-1" d="M531.18,304.84c2.94-1.17,5.78-2.65,8.91-3.26a50.32,50.32,0,0,1-4,6.5c-6.33,9.13-12.77,18.25-20.17,26.56-1.62,1.52-3,3.74-5.38,4-4.25-1.87-4.33-7.14-4-11.1.6-3.32.89-6.85,2.78-9.74,2.1-3,5.36-5,8.57-6.67C522.23,308.86,526.7,306.84,531.18,304.84Z" transform="translate(-140.37 -87.1)"/><path class="cls-1" d="M239.63,306.22c.6-1.57,2.61-1.17,3.87-.73a82.92,82.92,0,0,1,10.69,5.18c2,1.15,4,3.17,3.51,5.69a80.29,80.29,0,0,0-2.22,9.56c-.6,3.18-.29,6.54-1.69,9.55-2.85-.61-5.74-1.11-8.58-1.79a7.89,7.89,0,0,1-5.19-4.5c-1.77-3.85-2.12-8.14-2.37-12.31C237.6,313.25,237.88,309.45,239.63,306.22Z" transform="translate(-140.37 -87.1)"/><path class="cls-1" d="M400.34,309.41c6.09-.87,12.06-2.63,18.19-3.12,2.57,3.57,3.13,8,4.13,12.2.6,2.86,1.56,5.65,1.88,8.58-1.93,2.69-5.27,3.62-8.26,4.59a179.58,179.58,0,0,1-34.61,6.62,92.88,92.88,0,0,1-10.15.17,33.24,33.24,0,0,1-3.92-1c-1.44-2.09-1.36-4.71-1.08-7.13.45-3.43.1-7,1.37-10.31,1.08-2.72,4-4,6.6-4.78l.33-.19c8.31-2.18,16.75-3.82,25.19-5.41Z" transform="translate(-140.37 -87.1)"/><path class="cls-1" d="M270.86,318.23c1.93-1.66,4.7-1.7,7.11-1.44,7.9.87,15.78,2,23.6,3.4,2.72.51,6.32,1.67,6.33,5a53.67,53.67,0,0,1-1.09,9.8c-.55,2.3-3.14,3.15-5.25,3.09a153.62,153.62,0,0,1-27.76-1.92c-2.32-.51-4.78-.82-6.78-2.21l-.68-1.25c0-3,1.13-5.77,1.93-8.58C268.92,322.11,269.45,319.91,270.86,318.23Z" transform="translate(-140.37 -87.1)"/><path class="cls-1" d="M342.3,318.13a44.68,44.68,0,0,1,8.95-.46,3.91,3.91,0,0,1,3.42,1.95c1,2.13.75,4.56.81,6.85-.07,3,.29,6.06-.74,8.91a5.41,5.41,0,0,1-3.89,2.52c-5.84,1-11.77.47-17.65.58-4.45-.11-9.07.35-13.36-1.06-2-.72-1.74-3.12-1.48-4.79a88.23,88.23,0,0,1,2.86-11.91C328.23,319.73,335.25,318.81,342.3,318.13Z" transform="translate(-140.37 -87.1)"/><path class="cls-1" d="M485.7,327.1c2.74-1.16,5.57-2.6,8.65-2.19,1.33,2.35.57,5.1,1,7.64.38,4.28,1.61,8.67,4.49,12a3.66,3.66,0,0,1,0,5.16c-2.78,3.13-6.32,5.4-9.67,7.85-9.81,6.83-19.69,13.57-29.86,19.86-1.8.95-3.79,2.45-5.93,1.76-1.69-.86-2.68-2.59-3.6-4.16a87.12,87.12,0,0,1-8.1-20.25c-.7-3.16-1.52-6.86.63-9.66,2.11-3,5.89-3.69,9.19-4.54C464,337.15,474.8,332,485.7,327.1Z" transform="translate(-140.37 -87.1)"/><path class="cls-1" d="M407.93,354.81c6.39-1.95,12.51-4.73,19-6.46a2.82,2.82,0,0,1,3.69,1.5c0,6.32.6,12.81,3.62,18.47A60.1,60.1,0,0,1,440,380.68c.43,1.62.91,3.83-.58,5.08-1.88,1.64-4.32,2.41-6.63,3.25a275.33,275.33,0,0,1-37.43,9.36c-4.15.56-8.3,1.42-12.5,1.19a6.87,6.87,0,0,1-3-1.13,11.42,11.42,0,0,1-1.75-5.26,115.77,115.77,0,0,1-.72-13.15,57.57,57.57,0,0,1-.17-10.42c.25-2.18.7-4.65,2.6-6,2.17-1.51,4.8-2.14,7.33-2.78,6-1.42,11.87-3.18,17.73-5.05C405.91,355.43,406.91,355.11,407.93,354.81Z" transform="translate(-140.37 -87.1)"/><path class="cls-1" d="M211.46,357a27.81,27.81,0,0,1,3.87,5.5c3.2,5.58,6.27,11.39,7.69,17.72a5.87,5.87,0,0,1-.31,3.15l-1.35-.15c-2.63-5.64-4.9-11.44-7.37-17.15C213,363.08,211.35,360.17,211.46,357Z" transform="translate(-140.37 -87.1)"/><path class="cls-1" d="M232.43,367.6c.18-.32.56-1,.76-1.29.83.19,1.66.41,2.49.61,3.73,3.43,6.26,7.91,8.57,12.37,2.05,4,3.91,8.18,5.7,12.34a7.62,7.62,0,0,1,.7,2.89c-3,.34-5.94-.72-8.83-1.47-4.46-1.25-9.09-2.44-12.9-5.17a4.29,4.29,0,0,1-1.56-2.26c2.52-1.27,6.5.71,7.8-2.5C236.17,377.76,233.38,372.75,232.43,367.6Z" transform="translate(-140.37 -87.1)"/><path class="cls-1" d="M349.67,369a77,77,0,0,0,12.94-2.59c2.06-.44,2.69,2.28,3,3.8a154.66,154.66,0,0,1,1.3,20.63c-.07,3.18.05,6.57-1.41,9.48-.81,1.52-2.6,1.65-4.1,1.88a147.44,147.44,0,0,1-17.95.81c-4.39-.08-8.94.39-13.12-1.25-2-1.84-2.4-4.63-2.94-7.16-1.11-6.14-2.7-12.2-3.23-18.41,0-1.54.38-3.42,1.85-4.22,2.26-1.18,4.87-1.21,7.37-1.34l.34-.21C339,370.31,344.36,369.59,349.67,369Z" transform="translate(-140.37 -87.1)"/><path class="cls-1" d="M254.37,370.77c4,.29,7.67,1.92,11.62,2.31,1.37.24,3.1.07,4,1.36,2.95,3.54,4.25,8.07,5.73,12.34,1,3.36,2.24,6.66,3.47,9.94a5.59,5.59,0,0,1,.11,2.79,7.66,7.66,0,0,1-2.58.42,70.32,70.32,0,0,1-9.69-1.66,9.45,9.45,0,0,1-4.14-2c-.37-1.21.3-2.5,0-3.74-1.29-5.86-4.26-11.14-6.91-16.47C255.16,374.38,254.19,372.69,254.37,370.77Z" transform="translate(-140.37 -87.1)"/><path class="cls-1" d="M296,373.93c4.74-.33,9.81-.49,14.26,1.4,2.29,4.46,3.32,9.39,4.42,14.23.13.82.25,1.64.39,2.47.45,3.33,1.94,7.08.25,10.26-4.29,1.24-8.88.7-13.23.07-2.24-.47-4.88-.78-6.31-2.79a74.22,74.22,0,0,1-8-14.32c-1.18-2.76-2.6-5.51-2.84-8.55l.74-1.22C289,374,292.56,374.19,296,373.93Z" transform="translate(-140.37 -87.1)"/></g></svg>